<svg xmlns="http://www.w3.org/2000/svg" xmlns:xlink="http://www.w3.org/1999/xlink" width="500" zoomAndPan="magnify" viewBox="0 0 375 374.999991" height="500" preserveAspectRatio="xMidYMid meet" version="1.0"><defs><clipPath id="64443b1198"><path d="M 37.5 37.5 L 337.5 37.5 L 337.5 337.5 L 37.5 337.5 Z M 37.5 37.5 " clip-rule="nonzero"/></clipPath></defs><rect x="-37.5" width="450" fill="#ffffff" y="-37.499999" height="449.999989" fill-opacity="1"/><rect x="-37.5" width="450" fill="#ffffff" y="-37.499999" height="449.999989" fill-opacity="1"/><g clip-path="url(#64443b1198)"><path fill="#ffffff" d="M 7.5 7.5 L 367.5 7.5 L 367.5 367.5 L 7.5 367.5 Z M 7.5 7.5 " fill-opacity="1" fill-rule="nonzero"/><path fill="#ffffff" d="M 7.5 7.5 L 367.5 7.5 L 367.5 367.5 L 7.5 367.5 Z M 7.5 7.5 " fill-opacity="1" fill-rule="nonzero"/></g><path stroke-linecap="round" transform="matrix(1.875, 0, 0, 1.875, 67.5, 67.499996)" fill="none" stroke-linejoin="round" d="M 20.000001 92.000008 C 30.666669 81.333341 41.333336 70.666674 52.000003 60.000006 C 62.666671 68.000007 73.333338 76.000007 84.000005 84.000008 C 92.000006 70.666674 100.000007 57.333339 108.000007 44.000005 " stroke="#2d7a3e" stroke-width="6" stroke-opacity="0.3" stroke-miterlimit="4"/><path fill="#2d7a3e" d="M 127.5 240 C 127.5 240.738281 127.460938 241.472656 127.390625 242.207031 C 127.320312 242.9375 127.210938 243.664062 127.070312 244.390625 C 126.925781 245.113281 126.742188 245.824219 126.53125 246.53125 C 126.320312 247.238281 126.070312 247.929688 125.789062 248.609375 C 125.507812 249.289062 125.191406 249.957031 124.84375 250.605469 C 124.496094 251.257812 124.117188 251.886719 123.710938 252.5 C 123.300781 253.113281 122.859375 253.703125 122.394531 254.273438 C 121.925781 254.84375 121.429688 255.386719 120.910156 255.910156 C 120.386719 256.429688 119.84375 256.925781 119.273438 257.394531 C 118.703125 257.859375 118.113281 258.300781 117.5 258.710938 C 116.886719 259.117188 116.257812 259.496094 115.605469 259.84375 C 114.957031 260.191406 114.289062 260.507812 113.609375 260.789062 C 112.929688 261.070312 112.238281 261.320312 111.53125 261.53125 C 110.824219 261.742188 110.113281 261.925781 109.390625 262.070312 C 108.664062 262.210938 107.9375 262.320312 107.207031 262.390625 C 106.472656 262.460938 105.738281 262.5 105 262.5 C 104.261719 262.5 103.527344 262.460938 102.792969 262.390625 C 102.0625 262.320312 101.335938 262.210938 100.609375 262.070312 C 99.886719 261.925781 99.175781 261.742188 98.46875 261.53125 C 97.761719 261.320312 97.070312 261.070312 96.390625 260.789062 C 95.710938 260.507812 95.042969 260.191406 94.394531 259.84375 C 93.742188 259.496094 93.113281 259.117188 92.5 258.710938 C 91.886719 258.300781 91.296875 257.859375 90.726562 257.394531 C 90.15625 256.925781 89.613281 256.429688 89.089844 255.910156 C 88.570312 255.386719 88.074219 254.84375 87.605469 254.273438 C 87.140625 253.703125 86.699219 253.113281 86.289062 252.5 C 85.882812 251.886719 85.503906 251.257812 85.15625 250.605469 C 84.808594 249.957031 84.492188 249.289062 84.210938 248.609375 C 83.929688 247.929688 83.679688 247.238281 83.46875 246.53125 C 83.257812 245.824219 83.074219 245.113281 82.929688 244.390625 C 82.789062 243.664062 82.679688 242.9375 82.609375 242.207031 C 82.539062 241.472656 82.5 240.738281 82.5 240 C 82.5 239.261719 82.539062 238.527344 82.609375 237.792969 C 82.679688 237.0625 82.789062 236.335938 82.929688 235.609375 C 83.074219 234.886719 83.257812 234.175781 83.46875 233.46875 C 83.679688 232.761719 83.929688 232.070312 84.210938 231.390625 C 84.492188 230.710938 84.808594 230.042969 85.15625 229.394531 C 85.503906 228.742188 85.882812 228.113281 86.289062 227.5 C 86.699219 226.886719 87.140625 226.296875 87.605469 225.726562 C 88.074219 225.15625 88.570312 224.613281 89.089844 224.089844 C 89.613281 223.570312 90.15625 223.074219 90.726562 222.605469 C 91.296875 222.140625 91.886719 221.699219 92.5 221.289062 C 93.113281 220.882812 93.742188 220.503906 94.394531 220.15625 C 95.042969 219.808594 95.710938 219.492188 96.390625 219.210938 C 97.070312 218.929688 97.761719 218.679688 98.46875 218.46875 C 99.175781 218.257812 99.886719 218.074219 100.609375 217.929688 C 101.335938 217.789062 102.0625 217.679688 102.792969 217.609375 C 103.527344 217.539062 104.261719 217.5 105 217.5 C 105.738281 217.5 106.472656 217.539062 107.207031 217.609375 C 107.9375 217.679688 108.664062 217.789062 109.390625 217.929688 C 110.113281 218.074219 110.824219 218.257812 111.53125 218.46875 C 112.238281 218.679688 112.929688 218.929688 113.609375 219.210938 C 114.289062 219.492188 114.957031 219.808594 115.605469 220.15625 C 116.257812 220.503906 116.886719 220.882812 117.5 221.289062 C 118.113281 221.699219 118.703125 222.140625 119.273438 222.605469 C 119.84375 223.074219 120.386719 223.570312 120.910156 224.089844 C 121.429688 224.613281 121.925781 225.15625 122.394531 225.726562 C 122.859375 226.296875 123.300781 226.886719 123.710938 227.5 C 124.117188 228.113281 124.496094 228.742188 124.84375 229.394531 C 125.191406 230.042969 125.507812 230.710938 125.789062 231.390625 C 126.070312 232.070312 126.320312 232.761719 126.53125 233.46875 C 126.742188 234.175781 126.925781 234.886719 127.070312 235.609375 C 127.210938 236.335938 127.320312 237.0625 127.390625 237.792969 C 127.460938 238.527344 127.5 239.261719 127.5 240 Z M 127.5 240 " fill-opacity="1" fill-rule="nonzero"/><path fill="#ff6b35" d="M 187.5 180 C 187.5 180.738281 187.460938 181.472656 187.390625 182.207031 C 187.320312 182.9375 187.210938 183.664062 187.070312 184.390625 C 186.925781 185.113281 186.742188 185.824219 186.53125 186.53125 C 186.320312 187.238281 186.070312 187.929688 185.789062 188.609375 C 185.507812 189.289062 185.191406 189.957031 184.84375 190.605469 C 184.496094 191.257812 184.117188 191.886719 183.710938 192.5 C 183.300781 193.113281 182.859375 193.703125 182.394531 194.273438 C 181.925781 194.84375 181.429688 195.386719 180.910156 195.910156 C 180.386719 196.429688 179.84375 196.925781 179.273438 197.394531 C 178.703125 197.859375 178.113281 198.300781 177.5 198.710938 C 176.886719 199.117188 176.257812 199.496094 175.605469 199.84375 C 174.957031 200.191406 174.289062 200.507812 173.609375 200.789062 C 172.929688 201.070312 172.238281 201.320312 171.53125 201.53125 C 170.824219 201.742188 170.113281 201.925781 169.390625 202.070312 C 168.664062 202.210938 167.9375 202.320312 167.207031 202.390625 C 166.472656 202.460938 165.738281 202.5 165 202.5 C 164.261719 202.5 163.527344 202.460938 162.792969 202.390625 C 162.0625 202.320312 161.335938 202.210938 160.609375 202.070312 C 159.886719 201.925781 159.175781 201.742188 158.46875 201.53125 C 157.761719 201.320312 157.070312 201.070312 156.390625 200.789062 C 155.710938 200.507812 155.042969 200.191406 154.394531 199.84375 C 153.742188 199.496094 153.113281 199.117188 152.5 198.710938 C 151.886719 198.300781 151.296875 197.859375 150.726562 197.394531 C 150.15625 196.925781 149.613281 196.429688 149.089844 195.910156 C 148.570312 195.386719 148.074219 194.84375 147.605469 194.273438 C 147.140625 193.703125 146.699219 193.113281 146.289062 192.5 C 145.882812 191.886719 145.503906 191.257812 145.15625 190.605469 C 144.808594 189.957031 144.492188 189.289062 144.210938 188.609375 C 143.929688 187.929688 143.679688 187.238281 143.46875 186.53125 C 143.257812 185.824219 143.074219 185.113281 142.929688 184.390625 C 142.789062 183.664062 142.679688 182.9375 142.609375 182.207031 C 142.539062 181.472656 142.5 180.738281 142.5 180 C 142.5 179.261719 142.539062 178.527344 142.609375 177.792969 C 142.679688 177.0625 142.789062 176.335938 142.929688 175.609375 C 143.074219 174.886719 143.257812 174.175781 143.46875 173.46875 C 143.679688 172.761719 143.929688 172.070312 144.210938 171.390625 C 144.492188 170.710938 144.808594 170.042969 145.15625 169.394531 C 145.503906 168.742188 145.882812 168.113281 146.289062 167.5 C 146.699219 166.886719 147.140625 166.296875 147.605469 165.726562 C 148.074219 165.15625 148.570312 164.613281 149.089844 164.089844 C 149.613281 163.570312 150.15625 163.074219 150.726562 162.605469 C 151.296875 162.140625 151.886719 161.699219 152.5 161.289062 C 153.113281 160.882812 153.742188 160.503906 154.394531 160.15625 C 155.042969 159.808594 155.710938 159.492188 156.390625 159.210938 C 157.070312 158.929688 157.761719 158.679688 158.46875 158.46875 C 159.175781 158.257812 159.886719 158.074219 160.609375 157.929688 C 161.335938 157.789062 162.0625 157.679688 162.792969 157.609375 C 163.527344 157.539062 164.261719 157.5 165 157.5 C 165.738281 157.5 166.472656 157.539062 167.207031 157.609375 C 167.9375 157.679688 168.664062 157.789062 169.390625 157.929688 C 170.113281 158.074219 170.824219 158.257812 171.53125 158.46875 C 172.238281 158.679688 172.929688 158.929688 173.609375 159.210938 C 174.289062 159.492188 174.957031 159.808594 175.605469 160.15625 C 176.257812 160.503906 176.886719 160.882812 177.5 161.289062 C 178.113281 161.699219 178.703125 162.140625 179.273438 162.605469 C 179.84375 163.074219 180.386719 163.570312 180.910156 164.089844 C 181.429688 164.613281 181.925781 165.15625 182.394531 165.726562 C 182.859375 166.296875 183.300781 166.886719 183.710938 167.5 C 184.117188 168.113281 184.496094 168.742188 184.84375 169.394531 C 185.191406 170.042969 185.507812 170.710938 185.789062 171.390625 C 186.070312 172.070312 186.320312 172.761719 186.53125 173.46875 C 186.742188 174.175781 186.925781 174.886719 187.070312 175.609375 C 187.210938 176.335938 187.320312 177.0625 187.390625 177.792969 C 187.460938 178.527344 187.5 179.261719 187.5 180 Z M 187.5 180 " fill-opacity="1" fill-rule="nonzero"/><path fill="#f7b801" d="M 247.5 225 C 247.5 225.738281 247.460938 226.472656 247.390625 227.207031 C 247.320312 227.9375 247.210938 228.664062 247.070312 229.390625 C 246.925781 230.113281 246.742188 230.824219 246.53125 231.53125 C 246.320312 232.238281 246.070312 232.929688 245.789062 233.609375 C 245.507812 234.289062 245.191406 234.957031 244.84375 235.605469 C 244.496094 236.257812 244.117188 236.886719 243.710938 237.5 C 243.300781 238.113281 242.859375 238.703125 242.394531 239.273438 C 241.925781 239.84375 241.429688 240.386719 240.910156 240.910156 C 240.386719 241.429688 239.84375 241.925781 239.273438 242.394531 C 238.703125 242.859375 238.113281 243.300781 237.5 243.710938 C 236.886719 244.117188 236.257812 244.496094 235.605469 244.84375 C 234.957031 245.191406 234.289062 245.507812 233.609375 245.789062 C 232.929688 246.070312 232.238281 246.320312 231.53125 246.53125 C 230.824219 246.742188 230.113281 246.925781 229.390625 247.070312 C 228.664062 247.210938 227.9375 247.320312 227.207031 247.390625 C 226.472656 247.460938 225.738281 247.5 225 247.5 C 224.261719 247.5 223.527344 247.460938 222.792969 247.390625 C 222.0625 247.320312 221.335938 247.210938 220.609375 247.070312 C 219.886719 246.925781 219.175781 246.742188 218.46875 246.53125 C 217.761719 246.320312 217.070312 246.070312 216.390625 245.789062 C 215.710938 245.507812 215.042969 245.191406 214.394531 244.84375 C 213.742188 244.496094 213.113281 244.117188 212.5 243.710938 C 211.886719 243.300781 211.296875 242.859375 210.726562 242.394531 C 210.15625 241.925781 209.613281 241.429688 209.089844 240.910156 C 208.570312 240.386719 208.074219 239.84375 207.605469 239.273438 C 207.140625 238.703125 206.699219 238.113281 206.289062 237.5 C 205.882812 236.886719 205.503906 236.257812 205.15625 235.605469 C 204.808594 234.957031 204.492188 234.289062 204.210938 233.609375 C 203.929688 232.929688 203.679688 232.238281 203.46875 231.53125 C 203.257812 230.824219 203.074219 230.113281 202.929688 229.390625 C 202.789062 228.664062 202.679688 227.9375 202.609375 227.207031 C 202.539062 226.472656 202.5 225.738281 202.5 225 C 202.5 224.261719 202.539062 223.527344 202.609375 222.792969 C 202.679688 222.0625 202.789062 221.335938 202.929688 220.609375 C 203.074219 219.886719 203.257812 219.175781 203.46875 218.46875 C 203.679688 217.761719 203.929688 217.070312 204.210938 216.390625 C 204.492188 215.710938 204.808594 215.042969 205.15625 214.394531 C 205.503906 213.742188 205.882812 213.113281 206.289062 212.5 C 206.699219 211.886719 207.140625 211.296875 207.605469 210.726562 C 208.074219 210.15625 208.570312 209.613281 209.089844 209.089844 C 209.613281 208.570312 210.15625 208.074219 210.726562 207.605469 C 211.296875 207.140625 211.886719 206.699219 212.5 206.289062 C 213.113281 205.882812 213.742188 205.503906 214.394531 205.15625 C 215.042969 204.808594 215.710938 204.492188 216.390625 204.210938 C 217.070312 203.929688 217.761719 203.679688 218.46875 203.46875 C 219.175781 203.257812 219.886719 203.074219 220.609375 202.929688 C 221.335938 202.789062 222.0625 202.679688 222.792969 202.609375 C 223.527344 202.539062 224.261719 202.5 225 202.5 C 225.738281 202.5 226.472656 202.539062 227.207031 202.609375 C 227.9375 202.679688 228.664062 202.789062 229.390625 202.929688 C 230.113281 203.074219 230.824219 203.257812 231.53125 203.46875 C 232.238281 203.679688 232.929688 203.929688 233.609375 204.210938 C 234.289062 204.492188 234.957031 204.808594 235.605469 205.15625 C 236.257812 205.503906 236.886719 205.882812 237.5 206.289062 C 238.113281 206.699219 238.703125 207.140625 239.273438 207.605469 C 239.84375 208.074219 240.386719 208.570312 240.910156 209.089844 C 241.429688 209.613281 241.925781 210.15625 242.394531 210.726562 C 242.859375 211.296875 243.300781 211.886719 243.710938 212.5 C 244.117188 213.113281 244.496094 213.742188 244.84375 214.394531 C 245.191406 215.042969 245.507812 215.710938 245.789062 216.390625 C 246.070312 217.070312 246.320312 217.761719 246.53125 218.46875 C 246.742188 219.175781 246.925781 219.886719 247.070312 220.609375 C 247.210938 221.335938 247.320312 222.0625 247.390625 222.792969 C 247.460938 223.527344 247.5 224.261719 247.5 225 Z M 247.5 225 " fill-opacity="1" fill-rule="nonzero"/><path fill="#2d7a3e" d="M 292.5 150 C 292.5 150.738281 292.460938 151.472656 292.390625 152.207031 C 292.320312 152.9375 292.210938 153.664062 292.070312 154.390625 C 291.925781 155.113281 291.742188 155.824219 291.53125 156.53125 C 291.320312 157.238281 291.070312 157.929688 290.789062 158.609375 C 290.507812 159.289062 290.191406 159.957031 289.84375 160.605469 C 289.496094 161.257812 289.117188 161.886719 288.710938 162.5 C 288.300781 163.113281 287.859375 163.703125 287.394531 164.273438 C 286.925781 164.84375 286.429688 165.386719 285.910156 165.910156 C 285.386719 166.429688 284.84375 166.925781 284.273438 167.394531 C 283.703125 167.859375 283.113281 168.300781 282.5 168.710938 C 281.886719 169.117188 281.257812 169.496094 280.605469 169.84375 C 279.957031 170.191406 279.289062 170.507812 278.609375 170.789062 C 277.929688 171.070312 277.238281 171.320312 276.53125 171.53125 C 275.824219 171.742188 275.113281 171.925781 274.390625 172.070312 C 273.664062 172.210938 272.9375 172.320312 272.207031 172.390625 C 271.472656 172.460938 270.738281 172.5 270 172.5 C 269.261719 172.5 268.527344 172.460938 267.792969 172.390625 C 267.0625 172.320312 266.335938 172.210938 265.609375 172.070312 C 264.886719 171.925781 264.175781 171.742188 263.46875 171.53125 C 262.761719 171.320312 262.070312 171.070312 261.390625 170.789062 C 260.710938 170.507812 260.042969 170.191406 259.394531 169.84375 C 258.742188 169.496094 258.113281 169.117188 257.5 168.710938 C 256.886719 168.300781 256.296875 167.859375 255.726562 167.394531 C 255.15625 166.925781 254.613281 166.429688 254.089844 165.910156 C 253.570312 165.386719 253.074219 164.84375 252.605469 164.273438 C 252.140625 163.703125 251.699219 163.113281 251.289062 162.5 C 250.882812 161.886719 250.503906 161.257812 250.15625 160.605469 C 249.808594 159.957031 249.492188 159.289062 249.210938 158.609375 C 248.929688 157.929688 248.679688 157.238281 248.46875 156.53125 C 248.257812 155.824219 248.074219 155.113281 247.929688 154.390625 C 247.789062 153.664062 247.679688 152.9375 247.609375 152.207031 C 247.539062 151.472656 247.5 150.738281 247.5 150 C 247.5 149.261719 247.539062 148.527344 247.609375 147.792969 C 247.679688 147.0625 247.789062 146.335938 247.929688 145.609375 C 248.074219 144.886719 248.257812 144.175781 248.46875 143.46875 C 248.679688 142.761719 248.929688 142.070312 249.210938 141.390625 C 249.492188 140.710938 249.808594 140.042969 250.15625 139.394531 C 250.503906 138.742188 250.882812 138.113281 251.289062 137.5 C 251.699219 136.886719 252.140625 136.296875 252.605469 135.726562 C 253.074219 135.15625 253.570312 134.613281 254.089844 134.089844 C 254.613281 133.570312 255.15625 133.074219 255.726562 132.605469 C 256.296875 132.140625 256.886719 131.699219 257.5 131.289062 C 258.113281 130.882812 258.742188 130.503906 259.394531 130.15625 C 260.042969 129.808594 260.710938 129.492188 261.390625 129.210938 C 262.070312 128.929688 262.761719 128.679688 263.46875 128.46875 C 264.175781 128.257812 264.886719 128.074219 265.609375 127.929688 C 266.335938 127.789062 267.0625 127.679688 267.792969 127.609375 C 268.527344 127.539062 269.261719 127.5 270 127.5 C 270.738281 127.5 271.472656 127.539062 272.207031 127.609375 C 272.9375 127.679688 273.664062 127.789062 274.390625 127.929688 C 275.113281 128.074219 275.824219 128.257812 276.53125 128.46875 C 277.238281 128.679688 277.929688 128.929688 278.609375 129.210938 C 279.289062 129.492188 279.957031 129.808594 280.605469 130.15625 C 281.257812 130.503906 281.886719 130.882812 282.5 131.289062 C 283.113281 131.699219 283.703125 132.140625 284.273438 132.605469 C 284.84375 133.074219 285.386719 133.570312 285.910156 134.089844 C 286.429688 134.613281 286.925781 135.15625 287.394531 135.726562 C 287.859375 136.296875 288.300781 136.886719 288.710938 137.5 C 289.117188 138.113281 289.496094 138.742188 289.84375 139.394531 C 290.191406 140.042969 290.507812 140.710938 290.789062 141.390625 C 291.070312 142.070312 291.320312 142.761719 291.53125 143.46875 C 291.742188 144.175781 291.925781 144.886719 292.070312 145.609375 C 292.210938 146.335938 292.320312 147.0625 292.390625 147.792969 C 292.460938 148.527344 292.5 149.261719 292.5 150 Z M 292.5 150 " fill-opacity="1" fill-rule="nonzero"/></svg>