<svg xmlns="http://www.w3.org/2000/svg" xmlns:xlink="http://www.w3.org/1999/xlink" width="500" zoomAndPan="magnify" viewBox="0 0 375 374.999991" height="500" preserveAspectRatio="xMidYMid meet" version="1.0"><rect x="-37.5" width="450" fill="#ffffff" y="-37.499999" height="449.999989" fill-opacity="1"/><rect x="-37.5" width="450" fill="#ffffff" y="-37.499999" height="449.999989" fill-opacity="1"/><path stroke-linecap="round" transform="matrix(2.34375, 0, 0, 2.34375, 37.500002, 37.499998)" fill="none" stroke-linejoin="round" d="M 20 92.000007 C 30.666668 81.33334 41.333335 70.666672 52.000003 60.000005 C 62.66667 68.000006 73.333337 76.000006 84.000005 84.000007 C 92.000005 70.666672 100.000006 57.333338 108.000006 44.000004 " stroke="#2d7a3e" stroke-width="6" stroke-opacity="0.3" stroke-miterlimit="4"/><path fill="#2d7a3e" d="M 112.5 253.125 C 112.5 254.046875 112.453125 254.964844 112.363281 255.882812 C 112.273438 256.796875 112.140625 257.707031 111.960938 258.613281 C 111.78125 259.515625 111.554688 260.40625 111.289062 261.289062 C 111.023438 262.171875 110.710938 263.035156 110.359375 263.886719 C 110.007812 264.738281 109.613281 265.570312 109.179688 266.382812 C 108.746094 267.195312 108.273438 267.984375 107.761719 268.75 C 107.25 269.515625 106.699219 270.253906 106.117188 270.96875 C 105.53125 271.679688 104.914062 272.359375 104.261719 273.011719 C 103.609375 273.664062 102.929688 274.28125 102.21875 274.867188 C 101.503906 275.449219 100.765625 276 100 276.511719 C 99.234375 277.023438 98.445312 277.496094 97.632812 277.929688 C 96.820312 278.363281 95.988281 278.757812 95.136719 279.109375 C 94.285156 279.460938 93.421875 279.773438 92.539062 280.039062 C 91.65625 280.304688 90.765625 280.53125 89.863281 280.710938 C 88.957031 280.890625 88.046875 281.023438 87.132812 281.113281 C 86.214844 281.203125 85.296875 281.25 84.375 281.25 C 83.453125 281.25 82.535156 281.203125 81.617188 281.113281 C 80.703125 281.023438 79.792969 280.890625 78.886719 280.710938 C 77.984375 280.53125 77.09375 280.304688 76.210938 280.039062 C 75.328125 279.773438 74.464844 279.460938 73.613281 279.109375 C 72.761719 278.757812 71.929688 278.363281 71.117188 277.929688 C 70.304688 277.496094 69.515625 277.023438 68.75 276.511719 C 67.984375 276 67.246094 275.449219 66.53125 274.867188 C 65.820312 274.28125 65.140625 273.664062 64.488281 273.011719 C 63.835938 272.359375 63.21875 271.679688 62.632812 270.96875 C 62.050781 270.253906 61.5 269.515625 60.988281 268.75 C 60.476562 267.984375 60.003906 267.195312 59.570312 266.382812 C 59.136719 265.570312 58.742188 264.738281 58.390625 263.886719 C 58.039062 263.035156 57.726562 262.171875 57.460938 261.289062 C 57.195312 260.40625 56.96875 259.515625 56.789062 258.613281 C 56.609375 257.707031 56.476562 256.796875 56.386719 255.882812 C 56.296875 254.964844 56.25 254.046875 56.25 253.125 C 56.25 252.203125 56.296875 251.285156 56.386719 250.367188 C 56.476562 249.453125 56.609375 248.542969 56.789062 247.636719 C 56.96875 246.734375 57.195312 245.84375 57.460938 244.960938 C 57.726562 244.078125 58.039062 243.214844 58.390625 242.363281 C 58.742188 241.511719 59.136719 240.679688 59.570312 239.867188 C 60.003906 239.054688 60.476562 238.265625 60.988281 237.5 C 61.5 236.734375 62.050781 235.996094 62.632812 235.28125 C 63.21875 234.570312 63.835938 233.890625 64.488281 233.238281 C 65.140625 232.585938 65.820312 231.96875 66.53125 231.382812 C 67.246094 230.800781 67.984375 230.25 68.75 229.738281 C 69.515625 229.226562 70.304688 228.753906 71.117188 228.320312 C 71.929688 227.886719 72.761719 227.492188 73.613281 227.140625 C 74.464844 226.789062 75.328125 226.476562 76.210938 226.210938 C 77.09375 225.945312 77.984375 225.71875 78.886719 225.539062 C 79.792969 225.359375 80.703125 225.226562 81.617188 225.136719 C 82.535156 225.046875 83.453125 225 84.375 225 C 85.296875 225 86.214844 225.046875 87.132812 225.136719 C 88.046875 225.226562 88.957031 225.359375 89.863281 225.539062 C 90.765625 225.71875 91.65625 225.945312 92.539062 226.210938 C 93.421875 226.476562 94.285156 226.789062 95.136719 227.140625 C 95.988281 227.492188 96.820312 227.886719 97.632812 228.320312 C 98.445312 228.753906 99.234375 229.226562 100 229.738281 C 100.765625 230.25 101.503906 230.800781 102.21875 231.382812 C 102.929688 231.96875 103.609375 232.585938 104.261719 233.238281 C 104.914062 233.890625 105.53125 234.570312 106.117188 235.28125 C 106.699219 235.996094 107.25 236.734375 107.761719 237.5 C 108.273438 238.265625 108.746094 239.054688 109.179688 239.867188 C 109.613281 240.679688 110.007812 241.511719 110.359375 242.363281 C 110.710938 243.214844 111.023438 244.078125 111.289062 244.960938 C 111.554688 245.84375 111.78125 246.734375 111.960938 247.636719 C 112.140625 248.542969 112.273438 249.453125 112.363281 250.367188 C 112.453125 251.285156 112.5 252.203125 112.5 253.125 Z M 112.5 253.125 " fill-opacity="1" fill-rule="nonzero"/><path fill="#ff6b35" d="M 187.5 178.125 C 187.5 179.046875 187.453125 179.964844 187.363281 180.882812 C 187.273438 181.796875 187.140625 182.707031 186.960938 183.613281 C 186.78125 184.515625 186.554688 185.40625 186.289062 186.289062 C 186.023438 187.171875 185.710938 188.035156 185.359375 188.886719 C 185.007812 189.738281 184.613281 190.570312 184.179688 191.382812 C 183.746094 192.195312 183.273438 192.984375 182.761719 193.75 C 182.25 194.515625 181.699219 195.253906 181.117188 195.96875 C 180.53125 196.679688 179.914062 197.359375 179.261719 198.011719 C 178.609375 198.664062 177.929688 199.28125 177.21875 199.867188 C 176.503906 200.449219 175.765625 201 175 201.511719 C 174.234375 202.023438 173.445312 202.496094 172.632812 202.929688 C 171.820312 203.363281 170.988281 203.757812 170.136719 204.109375 C 169.285156 204.460938 168.421875 204.773438 167.539062 205.039062 C 166.65625 205.304688 165.765625 205.53125 164.863281 205.710938 C 163.957031 205.890625 163.046875 206.023438 162.132812 206.113281 C 161.214844 206.203125 160.296875 206.25 159.375 206.25 C 158.453125 206.25 157.535156 206.203125 156.617188 206.113281 C 155.703125 206.023438 154.792969 205.890625 153.886719 205.710938 C 152.984375 205.53125 152.09375 205.304688 151.210938 205.039062 C 150.328125 204.773438 149.464844 204.460938 148.613281 204.109375 C 147.761719 203.757812 146.929688 203.363281 146.117188 202.929688 C 145.304688 202.496094 144.515625 202.023438 143.75 201.511719 C 142.984375 201 142.246094 200.449219 141.53125 199.867188 C 140.820312 199.28125 140.140625 198.664062 139.488281 198.011719 C 138.835938 197.359375 138.21875 196.679688 137.632812 195.96875 C 137.050781 195.253906 136.5 194.515625 135.988281 193.75 C 135.476562 192.984375 135.003906 192.195312 134.570312 191.382812 C 134.136719 190.570312 133.742188 189.738281 133.390625 188.886719 C 133.039062 188.035156 132.726562 187.171875 132.460938 186.289062 C 132.195312 185.40625 131.96875 184.515625 131.789062 183.613281 C 131.609375 182.707031 131.476562 181.796875 131.386719 180.882812 C 131.296875 179.964844 131.25 179.046875 131.25 178.125 C 131.25 177.203125 131.296875 176.285156 131.386719 175.367188 C 131.476562 174.453125 131.609375 173.542969 131.789062 172.636719 C 131.96875 171.734375 132.195312 170.84375 132.460938 169.960938 C 132.726562 169.078125 133.039062 168.214844 133.390625 167.363281 C 133.742188 166.511719 134.136719 165.679688 134.570312 164.867188 C 135.003906 164.054688 135.476562 163.265625 135.988281 162.5 C 136.5 161.734375 137.050781 160.996094 137.632812 160.28125 C 138.21875 159.570312 138.835938 158.890625 139.488281 158.238281 C 140.140625 157.585938 140.820312 156.96875 141.53125 156.382812 C 142.246094 155.800781 142.984375 155.25 143.75 154.738281 C 144.515625 154.226562 145.304688 153.753906 146.117188 153.320312 C 146.929688 152.886719 147.761719 152.492188 148.613281 152.140625 C 149.464844 151.789062 150.328125 151.476562 151.210938 151.210938 C 152.09375 150.945312 152.984375 150.71875 153.886719 150.539062 C 154.792969 150.359375 155.703125 150.226562 156.617188 150.136719 C 157.535156 150.046875 158.453125 150 159.375 150 C 160.296875 150 161.214844 150.046875 162.132812 150.136719 C 163.046875 150.226562 163.957031 150.359375 164.863281 150.539062 C 165.765625 150.71875 166.65625 150.945312 167.539062 151.210938 C 168.421875 151.476562 169.285156 151.789062 170.136719 152.140625 C 170.988281 152.492188 171.820312 152.886719 172.632812 153.320312 C 173.445312 153.753906 174.234375 154.226562 175 154.738281 C 175.765625 155.25 176.503906 155.800781 177.21875 156.382812 C 177.929688 156.96875 178.609375 157.585938 179.261719 158.238281 C 179.914062 158.890625 180.53125 159.570312 181.117188 160.28125 C 181.699219 160.996094 182.25 161.734375 182.761719 162.5 C 183.273438 163.265625 183.746094 164.054688 184.179688 164.867188 C 184.613281 165.679688 185.007812 166.511719 185.359375 167.363281 C 185.710938 168.214844 186.023438 169.078125 186.289062 169.960938 C 186.554688 170.84375 186.78125 171.734375 186.960938 172.636719 C 187.140625 173.542969 187.273438 174.453125 187.363281 175.367188 C 187.453125 176.285156 187.5 177.203125 187.5 178.125 Z M 187.5 178.125 " fill-opacity="1" fill-rule="nonzero"/><path fill="#f7b801" d="M 262.5 234.375 C 262.5 235.296875 262.453125 236.214844 262.363281 237.132812 C 262.273438 238.046875 262.140625 238.957031 261.960938 239.863281 C 261.78125 240.765625 261.554688 241.65625 261.289062 242.539062 C 261.023438 243.421875 260.710938 244.285156 260.359375 245.136719 C 260.007812 245.988281 259.613281 246.820312 259.179688 247.632812 C 258.746094 248.445312 258.273438 249.234375 257.761719 250 C 257.25 250.765625 256.699219 251.503906 256.117188 252.21875 C 255.53125 252.929688 254.914062 253.609375 254.261719 254.261719 C 253.609375 254.914062 252.929688 255.53125 252.21875 256.117188 C 251.503906 256.699219 250.765625 257.25 250 257.761719 C 249.234375 258.273438 248.445312 258.746094 247.632812 259.179688 C 246.820312 259.613281 245.988281 260.007812 245.136719 260.359375 C 244.285156 260.710938 243.421875 261.023438 242.539062 261.289062 C 241.65625 261.554688 240.765625 261.78125 239.863281 261.960938 C 238.957031 262.140625 238.046875 262.273438 237.132812 262.363281 C 236.214844 262.453125 235.296875 262.5 234.375 262.5 C 233.453125 262.5 232.535156 262.453125 231.617188 262.363281 C 230.703125 262.273438 229.792969 262.140625 228.886719 261.960938 C 227.984375 261.78125 227.09375 261.554688 226.210938 261.289062 C 225.328125 261.023438 224.464844 260.710938 223.613281 260.359375 C 222.761719 260.007812 221.929688 259.613281 221.117188 259.179688 C 220.304688 258.746094 219.515625 258.273438 218.75 257.761719 C 217.984375 257.25 217.246094 256.699219 216.53125 256.117188 C 215.820312 255.53125 215.140625 254.914062 214.488281 254.261719 C 213.835938 253.609375 213.21875 252.929688 212.632812 252.21875 C 212.050781 251.503906 211.5 250.765625 210.988281 250 C 210.476562 249.234375 210.003906 248.445312 209.570312 247.632812 C 209.136719 246.820312 208.742188 245.988281 208.390625 245.136719 C 208.039062 244.285156 207.726562 243.421875 207.460938 242.539062 C 207.195312 241.65625 206.96875 240.765625 206.789062 239.863281 C 206.609375 238.957031 206.476562 238.046875 206.386719 237.132812 C 206.296875 236.214844 206.25 235.296875 206.25 234.375 C 206.25 233.453125 206.296875 232.535156 206.386719 231.617188 C 206.476562 230.703125 206.609375 229.792969 206.789062 228.886719 C 206.96875 227.984375 207.195312 227.09375 207.460938 226.210938 C 207.726562 225.328125 208.039062 224.464844 208.390625 223.613281 C 208.742188 222.761719 209.136719 221.929688 209.570312 221.117188 C 210.003906 220.304688 210.476562 219.515625 210.988281 218.75 C 211.5 217.984375 212.050781 217.246094 212.632812 216.53125 C 213.21875 215.820312 213.835938 215.140625 214.488281 214.488281 C 215.140625 213.835938 215.820312 213.21875 216.53125 212.632812 C 217.246094 212.050781 217.984375 211.5 218.75 210.988281 C 219.515625 210.476562 220.304688 210.003906 221.117188 209.570312 C 221.929688 209.136719 222.761719 208.742188 223.613281 208.390625 C 224.464844 208.039062 225.328125 207.726562 226.210938 207.460938 C 227.09375 207.195312 227.984375 206.96875 228.886719 206.789062 C 229.792969 206.609375 230.703125 206.476562 231.617188 206.386719 C 232.535156 206.296875 233.453125 206.25 234.375 206.25 C 235.296875 206.25 236.214844 206.296875 237.132812 206.386719 C 238.046875 206.476562 238.957031 206.609375 239.863281 206.789062 C 240.765625 206.96875 241.65625 207.195312 242.539062 207.460938 C 243.421875 207.726562 244.285156 208.039062 245.136719 208.390625 C 245.988281 208.742188 246.820312 209.136719 247.632812 209.570312 C 248.445312 210.003906 249.234375 210.476562 250 210.988281 C 250.765625 211.5 251.503906 212.050781 252.21875 212.632812 C 252.929688 213.21875 253.609375 213.835938 254.261719 214.488281 C 254.914062 215.140625 255.53125 215.820312 256.117188 216.53125 C 256.699219 217.246094 257.25 217.984375 257.761719 218.75 C 258.273438 219.515625 258.746094 220.304688 259.179688 221.117188 C 259.613281 221.929688 260.007812 222.761719 260.359375 223.613281 C 260.710938 224.464844 261.023438 225.328125 261.289062 226.210938 C 261.554688 227.09375 261.78125 227.984375 261.960938 228.886719 C 262.140625 229.792969 262.273438 230.703125 262.363281 231.617188 C 262.453125 232.535156 262.5 233.453125 262.5 234.375 Z M 262.5 234.375 " fill-opacity="1" fill-rule="nonzero"/><path fill="#2d7a3e" d="M 318.75 140.625 C 318.75 141.546875 318.703125 142.464844 318.613281 143.382812 C 318.523438 144.296875 318.390625 145.207031 318.210938 146.113281 C 318.03125 147.015625 317.804688 147.90625 317.539062 148.789062 C 317.273438 149.671875 316.960938 150.535156 316.609375 151.386719 C 316.257812 152.238281 315.863281 153.070312 315.429688 153.882812 C 314.996094 154.695312 314.523438 155.484375 314.011719 156.25 C 313.5 157.015625 312.949219 157.753906 312.367188 158.46875 C 311.78125 159.179688 311.164062 159.859375 310.511719 160.511719 C 309.859375 161.164062 309.179688 161.78125 308.46875 162.367188 C 307.753906 162.949219 307.015625 163.5 306.25 164.011719 C 305.484375 164.523438 304.695312 164.996094 303.882812 165.429688 C 303.070312 165.863281 302.238281 166.257812 301.386719 166.609375 C 300.535156 166.960938 299.671875 167.273438 298.789062 167.539062 C 297.90625 167.804688 297.015625 168.03125 296.113281 168.210938 C 295.207031 168.390625 294.296875 168.523438 293.382812 168.613281 C 292.464844 168.703125 291.546875 168.75 290.625 168.75 C 289.703125 168.75 288.785156 168.703125 287.867188 168.613281 C 286.953125 168.523438 286.042969 168.390625 285.136719 168.210938 C 284.234375 168.03125 283.34375 167.804688 282.460938 167.539062 C 281.578125 167.273438 280.714844 166.960938 279.863281 166.609375 C 279.011719 166.257812 278.179688 165.863281 277.367188 165.429688 C 276.554688 164.996094 275.765625 164.523438 275 164.011719 C 274.234375 163.5 273.496094 162.949219 272.78125 162.367188 C 272.070312 161.78125 271.390625 161.164062 270.738281 160.511719 C 270.085938 159.859375 269.46875 159.179688 268.882812 158.46875 C 268.300781 157.753906 267.75 157.015625 267.238281 156.25 C 266.726562 155.484375 266.253906 154.695312 265.820312 153.882812 C 265.386719 153.070312 264.992188 152.238281 264.640625 151.386719 C 264.289062 150.535156 263.976562 149.671875 263.710938 148.789062 C 263.445312 147.90625 263.21875 147.015625 263.039062 146.113281 C 262.859375 145.207031 262.726562 144.296875 262.636719 143.382812 C 262.546875 142.464844 262.5 141.546875 262.5 140.625 C 262.5 139.703125 262.546875 138.785156 262.636719 137.867188 C 262.726562 136.953125 262.859375 136.042969 263.039062 135.136719 C 263.21875 134.234375 263.445312 133.34375 263.710938 132.460938 C 263.976562 131.578125 264.289062 130.714844 264.640625 129.863281 C 264.992188 129.011719 265.386719 128.179688 265.820312 127.367188 C 266.253906 126.554688 266.726562 125.765625 267.238281 125 C 267.75 124.234375 268.300781 123.496094 268.882812 122.78125 C 269.46875 122.070312 270.085938 121.390625 270.738281 120.738281 C 271.390625 120.085938 272.070312 119.46875 272.78125 118.882812 C 273.496094 118.300781 274.234375 117.75 275 117.238281 C 275.765625 116.726562 276.554688 116.253906 277.367188 115.820312 C 278.179688 115.386719 279.011719 114.992188 279.863281 114.640625 C 280.714844 114.289062 281.578125 113.976562 282.460938 113.710938 C 283.34375 113.445312 284.234375 113.21875 285.136719 113.039062 C 286.042969 112.859375 286.953125 112.726562 287.867188 112.636719 C 288.785156 112.546875 289.703125 112.5 290.625 112.5 C 291.546875 112.5 292.464844 112.546875 293.382812 112.636719 C 294.296875 112.726562 295.207031 112.859375 296.113281 113.039062 C 297.015625 113.21875 297.90625 113.445312 298.789062 113.710938 C 299.671875 113.976562 300.535156 114.289062 301.386719 114.640625 C 302.238281 114.992188 303.070312 115.386719 303.882812 115.820312 C 304.695312 116.253906 305.484375 116.726562 306.25 117.238281 C 307.015625 117.75 307.753906 118.300781 308.46875 118.882812 C 309.179688 119.46875 309.859375 120.085938 310.511719 120.738281 C 311.164062 121.390625 311.78125 122.070312 312.367188 122.78125 C 312.949219 123.496094 313.5 124.234375 314.011719 125 C 314.523438 125.765625 314.996094 126.554688 315.429688 127.367188 C 315.863281 128.179688 316.257812 129.011719 316.609375 129.863281 C 316.960938 130.714844 317.273438 131.578125 317.539062 132.460938 C 317.804688 133.34375 318.03125 134.234375 318.210938 135.136719 C 318.390625 136.042969 318.523438 136.953125 318.613281 137.867188 C 318.703125 138.785156 318.75 139.703125 318.75 140.625 Z M 318.75 140.625 " fill-opacity="1" fill-rule="nonzero"/></svg>