<svg xmlns="http://www.w3.org/2000/svg" xmlns:xlink="http://www.w3.org/1999/xlink" width="500" zoomAndPan="magnify" viewBox="0 0 375 374.999991" height="500" preserveAspectRatio="xMidYMid meet" version="1.0"><defs><g/></defs><rect x="-37.5" width="450" fill="#ffffff" y="-37.499999" height="449.999989" fill-opacity="1"/><rect x="-37.5" width="450" fill="#ffffff" y="-37.499999" height="449.999989" fill-opacity="1"/><g fill="#000000" fill-opacity="1"><g transform="translate(35.071874, 211.760861)"><g><path d="M 22.546875 -43.640625 C 25.671875 -43.640625 28.34375 -43.066406 30.5625 -41.921875 C 32.78125 -40.785156 34.453125 -39.1875 35.578125 -37.125 C 36.710938 -35.0625 37.28125 -32.664062 37.28125 -29.9375 C 37.28125 -27.21875 36.710938 -24.832031 35.578125 -22.78125 C 34.453125 -20.726562 32.78125 -19.128906 30.5625 -17.984375 C 28.34375 -16.835938 25.671875 -16.265625 22.546875 -16.265625 L 14.296875 -16.265625 L 14.296875 0 L 5.671875 0 L 5.671875 -43.640625 Z M 21.40625 -23.109375 C 26.195312 -23.109375 28.59375 -25.382812 28.59375 -29.9375 C 28.59375 -34.519531 26.195312 -36.8125 21.40625 -36.8125 L 14.296875 -36.8125 L 14.296875 -23.109375 Z M 21.40625 -23.109375 "/></g></g></g><g fill="#000000" fill-opacity="1"><g transform="translate(74.088168, 211.760861)"><g><path d="M 4.75 0 L 4.75 -32.921875 L 12.78125 -32.921875 L 12.78125 -28.03125 L 13.40625 -27.90625 C 14.195312 -29.738281 15.238281 -31.082031 16.53125 -31.9375 C 17.832031 -32.800781 19.40625 -33.234375 21.25 -33.234375 C 23.125 -33.234375 24.550781 -32.910156 25.53125 -32.265625 L 24.125 -25.140625 L 23.5 -25.015625 C 22.957031 -25.234375 22.4375 -25.390625 21.9375 -25.484375 C 21.445312 -25.585938 20.84375 -25.640625 20.125 -25.640625 C 17.8125 -25.640625 16.046875 -24.828125 14.828125 -23.203125 C 13.617188 -21.585938 13.015625 -18.988281 13.015625 -15.40625 L 13.015625 0 Z M 4.75 0 "/></g></g></g><g fill="#000000" fill-opacity="1"><g transform="translate(99.910077, 211.760861)"><g><path d="M 8.859375 -36.875 C 7.367188 -36.875 6.15625 -37.328125 5.21875 -38.234375 C 4.289062 -39.140625 3.828125 -40.304688 3.828125 -41.734375 C 3.828125 -43.148438 4.289062 -44.3125 5.21875 -45.21875 C 6.15625 -46.125 7.367188 -46.578125 8.859375 -46.578125 C 9.859375 -46.578125 10.742188 -46.363281 11.515625 -45.9375 C 12.296875 -45.519531 12.898438 -44.945312 13.328125 -44.21875 C 13.753906 -43.5 13.96875 -42.671875 13.96875 -41.734375 C 13.96875 -40.796875 13.753906 -39.957031 13.328125 -39.21875 C 12.898438 -38.488281 12.296875 -37.914062 11.515625 -37.5 C 10.742188 -37.082031 9.859375 -36.875 8.859375 -36.875 Z M 4.75 0 L 4.75 -32.921875 L 13.015625 -32.921875 L 13.015625 0 Z M 4.75 0 "/></g></g></g><g fill="#000000" fill-opacity="1"><g transform="translate(117.642112, 211.760861)"><g><path d="M 19.203125 0.625 C 16.015625 0.625 13.195312 -0.0351562 10.75 -1.359375 C 8.300781 -2.679688 6.390625 -4.625 5.015625 -7.1875 C 3.640625 -9.757812 2.953125 -12.847656 2.953125 -16.453125 C 2.953125 -20.078125 3.640625 -23.171875 5.015625 -25.734375 C 6.390625 -28.296875 8.289062 -30.238281 10.71875 -31.5625 C 13.144531 -32.894531 15.921875 -33.5625 19.046875 -33.5625 C 25.992188 -33.5625 30.441406 -31.039062 32.390625 -26 L 26.71875 -21.9375 L 26.09375 -21.9375 C 25.414062 -23.488281 24.535156 -24.644531 23.453125 -25.40625 C 22.367188 -26.164062 20.898438 -26.546875 19.046875 -26.546875 C 16.660156 -26.546875 14.800781 -25.71875 13.46875 -24.0625 C 12.132812 -22.40625 11.46875 -19.867188 11.46875 -16.453125 C 11.46875 -13.066406 12.144531 -10.539062 13.5 -8.875 C 14.851562 -7.21875 16.753906 -6.390625 19.203125 -6.390625 C 20.992188 -6.390625 22.507812 -6.867188 23.75 -7.828125 C 24.988281 -8.796875 25.878906 -10.1875 26.421875 -12 L 27.046875 -12.0625 L 32.921875 -8.84375 C 32.085938 -6.050781 30.539062 -3.773438 28.28125 -2.015625 C 26.019531 -0.253906 22.992188 0.625 19.203125 0.625 Z M 19.203125 0.625 "/></g></g></g><g fill="#000000" fill-opacity="1"><g transform="translate(151.58374, 211.760861)"><g><path d="M 32.546875 -14.59375 L 11.375 -14.59375 C 11.613281 -11.726562 12.425781 -9.644531 13.8125 -8.34375 C 15.207031 -7.039062 17.113281 -6.390625 19.53125 -6.390625 C 21.414062 -6.390625 22.945312 -6.742188 24.125 -7.453125 C 25.300781 -8.160156 26.242188 -9.226562 26.953125 -10.65625 L 27.578125 -10.65625 L 33.078125 -7.140625 C 32.003906 -4.828125 30.378906 -2.953125 28.203125 -1.515625 C 26.035156 -0.0859375 23.144531 0.625 19.53125 0.625 C 16.125 0.625 13.179688 -0.0195312 10.703125 -1.3125 C 8.222656 -2.601562 6.3125 -4.523438 4.96875 -7.078125 C 3.625 -9.640625 2.953125 -12.765625 2.953125 -16.453125 C 2.953125 -20.191406 3.65625 -23.34375 5.0625 -25.90625 C 6.476562 -28.476562 8.390625 -30.394531 10.796875 -31.65625 C 13.210938 -32.925781 15.921875 -33.5625 18.921875 -33.5625 C 23.578125 -33.5625 27.144531 -32.328125 29.625 -29.859375 C 32.101562 -27.390625 33.34375 -23.765625 33.34375 -18.984375 C 33.34375 -17.253906 33.285156 -15.910156 33.171875 -14.953125 Z M 25.4375 -19.9375 C 25.351562 -22.445312 24.769531 -24.273438 23.6875 -25.421875 C 22.601562 -26.566406 21.015625 -27.140625 18.921875 -27.140625 C 14.742188 -27.140625 12.285156 -24.738281 11.546875 -19.9375 Z M 25.4375 -19.9375 "/></g></g></g><g fill="#000000" fill-opacity="1"><g transform="translate(187.376188, 211.760861)"><g><path d="M 23.859375 0.625 C 19.835938 0.625 16.289062 -0.207031 13.21875 -1.875 C 10.15625 -3.550781 7.757812 -6.066406 6.03125 -9.421875 C 4.300781 -12.773438 3.4375 -16.910156 3.4375 -21.828125 C 3.4375 -26.742188 4.300781 -30.875 6.03125 -34.21875 C 7.757812 -37.570312 10.15625 -40.082031 13.21875 -41.75 C 16.289062 -43.425781 19.835938 -44.265625 23.859375 -44.265625 C 28.054688 -44.265625 31.617188 -43.441406 34.546875 -41.796875 C 37.484375 -40.160156 39.582031 -37.660156 40.84375 -34.296875 L 34.546875 -30.453125 L 33.796875 -30.484375 C 32.859375 -32.753906 31.585938 -34.378906 29.984375 -35.359375 C 28.378906 -36.347656 26.335938 -36.84375 23.859375 -36.84375 C 20.234375 -36.84375 17.40625 -35.640625 15.375 -33.234375 C 13.34375 -30.835938 12.328125 -27.035156 12.328125 -21.828125 C 12.328125 -16.628906 13.34375 -12.832031 15.375 -10.4375 C 17.40625 -8.039062 20.234375 -6.84375 23.859375 -6.84375 C 29.523438 -6.84375 32.992188 -9.597656 34.265625 -15.109375 L 35.015625 -15.109375 L 41.375 -11.796875 C 40.1875 -7.648438 38.144531 -4.539062 35.25 -2.46875 C 32.363281 -0.40625 28.566406 0.625 23.859375 0.625 Z M 23.859375 0.625 "/></g></g></g><g fill="#000000" fill-opacity="1"><g transform="translate(230.18383, 211.760861)"><g><path d="M 4.75 0 L 4.75 -32.921875 L 12.78125 -32.921875 L 12.78125 -28.03125 L 13.40625 -27.90625 C 14.195312 -29.738281 15.238281 -31.082031 16.53125 -31.9375 C 17.832031 -32.800781 19.40625 -33.234375 21.25 -33.234375 C 23.125 -33.234375 24.550781 -32.910156 25.53125 -32.265625 L 24.125 -25.140625 L 23.5 -25.015625 C 22.957031 -25.234375 22.4375 -25.390625 21.9375 -25.484375 C 21.445312 -25.585938 20.84375 -25.640625 20.125 -25.640625 C 17.8125 -25.640625 16.046875 -24.828125 14.828125 -23.203125 C 13.617188 -21.585938 13.015625 -18.988281 13.015625 -15.40625 L 13.015625 0 Z M 4.75 0 "/></g></g></g><g fill="#000000" fill-opacity="1"><g transform="translate(255.378729, 211.760861)"><g><path d="M 12.84375 0.625 C 10.726562 0.625 8.894531 0.238281 7.34375 -0.53125 C 5.789062 -1.3125 4.59375 -2.453125 3.75 -3.953125 C 2.914062 -5.453125 2.5 -7.257812 2.5 -9.375 C 2.5 -11.320312 2.914062 -12.957031 3.75 -14.28125 C 4.59375 -15.601562 5.890625 -16.6875 7.640625 -17.53125 C 9.390625 -18.382812 11.679688 -19.039062 14.515625 -19.5 C 16.484375 -19.8125 17.976562 -20.15625 19 -20.53125 C 20.03125 -20.914062 20.722656 -21.347656 21.078125 -21.828125 C 21.429688 -22.304688 21.609375 -22.910156 21.609375 -23.640625 C 21.609375 -24.691406 21.238281 -25.492188 20.5 -26.046875 C 19.769531 -26.609375 18.550781 -26.890625 16.84375 -26.890625 C 15.007812 -26.890625 13.265625 -26.484375 11.609375 -25.671875 C 9.960938 -24.859375 8.53125 -23.785156 7.3125 -22.453125 L 6.71875 -22.453125 L 3.25 -27.671875 C 4.925781 -29.523438 6.96875 -30.96875 9.375 -32 C 11.78125 -33.039062 14.40625 -33.5625 17.25 -33.5625 C 21.613281 -33.5625 24.769531 -32.632812 26.71875 -30.78125 C 28.664062 -28.925781 29.640625 -26.296875 29.640625 -22.890625 L 29.640625 -8.59375 C 29.640625 -7.125 30.285156 -6.390625 31.578125 -6.390625 C 32.078125 -6.390625 32.566406 -6.476562 33.046875 -6.65625 L 33.46875 -6.53125 L 34.0625 -0.78125 C 33.601562 -0.476562 32.960938 -0.234375 32.140625 -0.046875 C 31.328125 0.140625 30.4375 0.234375 29.46875 0.234375 C 27.5 0.234375 25.960938 -0.140625 24.859375 -0.890625 C 23.753906 -1.648438 22.960938 -2.835938 22.484375 -4.453125 L 21.859375 -4.515625 C 20.242188 -1.085938 17.238281 0.625 12.84375 0.625 Z M 15.46875 -5.546875 C 17.375 -5.546875 18.898438 -6.1875 20.046875 -7.46875 C 21.191406 -8.757812 21.765625 -10.550781 21.765625 -12.84375 L 21.765625 -16.1875 L 21.203125 -16.296875 C 20.703125 -15.898438 20.046875 -15.566406 19.234375 -15.296875 C 18.429688 -15.023438 17.273438 -14.765625 15.765625 -14.515625 C 13.972656 -14.210938 12.679688 -13.695312 11.890625 -12.96875 C 11.109375 -12.238281 10.71875 -11.207031 10.71875 -9.875 C 10.71875 -8.46875 11.132812 -7.394531 11.96875 -6.65625 C 12.800781 -5.914062 13.96875 -5.546875 15.46875 -5.546875 Z M 15.46875 -5.546875 "/></g></g></g><g fill="#000000" fill-opacity="1"><g transform="translate(289.708393, 211.760861)"><g><path d="M 5.765625 0 L 5.765625 -26.390625 L 1.109375 -26.390625 L 1.109375 -32.953125 L 5.765625 -32.953125 C 5.421875 -34.347656 5.25 -35.65625 5.25 -36.875 C 5.25 -38.957031 5.726562 -40.738281 6.6875 -42.21875 C 7.644531 -43.707031 9.019531 -44.835938 10.8125 -45.609375 C 12.601562 -46.390625 14.734375 -46.78125 17.203125 -46.78125 C 20.835938 -46.78125 23.550781 -46.15625 25.34375 -44.90625 L 23.40625 -38.8125 L 22.78125 -38.6875 C 21.539062 -39.5625 19.957031 -40 18.03125 -40 C 16.539062 -40 15.421875 -39.632812 14.671875 -38.90625 C 13.921875 -38.1875 13.546875 -37.195312 13.546875 -35.9375 C 13.546875 -35.40625 13.582031 -34.914062 13.65625 -34.46875 C 13.726562 -34.019531 13.851562 -33.515625 14.03125 -32.953125 L 23.4375 -32.953125 L 23.4375 -26.390625 L 14.03125 -26.390625 L 14.03125 0 Z M 5.765625 0 "/></g></g></g><g fill="#000000" fill-opacity="1"><g transform="translate(314.336351, 211.760861)"><g><path d="M 22.71875 -7.84375 L 24.875 -1.734375 C 23.976562 -0.992188 22.851562 -0.414062 21.5 0 C 20.144531 0.414062 18.609375 0.625 16.890625 0.625 C 13.328125 0.625 10.617188 -0.34375 8.765625 -2.28125 C 6.921875 -4.21875 6 -7.039062 6 -10.75 L 6 -26.390625 L 0.984375 -26.390625 L 0.984375 -32.953125 L 6 -32.953125 L 6 -39.375 L 14.265625 -40.71875 L 14.265625 -32.953125 L 23.609375 -32.953125 L 23.609375 -26.390625 L 14.265625 -26.390625 L 14.265625 -11.34375 C 14.265625 -9.707031 14.601562 -8.515625 15.28125 -7.765625 C 15.957031 -7.023438 16.941406 -6.65625 18.234375 -6.65625 C 19.710938 -6.65625 21 -7.050781 22.09375 -7.84375 Z M 22.71875 -7.84375 "/></g></g></g></svg>