<svg xmlns="http://www.w3.org/2000/svg" xmlns:xlink="http://www.w3.org/1999/xlink" width="500" zoomAndPan="magnify" viewBox="0 0 375 374.999991" height="500" preserveAspectRatio="xMidYMid meet" version="1.0"><defs><clipPath id="9099abdbb8"><path d="M 37.5 37.5 L 337.5 37.5 L 337.5 337.5 L 37.5 337.5 Z M 37.5 37.5 " clip-rule="nonzero"/></clipPath></defs><rect x="-37.5" width="450" fill="#ffffff" y="-37.499999" height="449.999989" fill-opacity="1"/><rect x="-37.5" width="450" fill="#ffffff" y="-37.499999" height="449.999989" fill-opacity="1"/><g clip-path="url(#9099abdbb8)"><path fill="#ffffff" d="M 7.5 7.5 L 367.5 7.5 L 367.5 367.5 L 7.5 367.5 Z M 7.5 7.5 " fill-opacity="1" fill-rule="nonzero"/><path fill="#ffffff" d="M 7.5 7.5 L 367.5 7.5 L 367.5 367.5 L 7.5 367.5 Z M 7.5 7.5 " fill-opacity="1" fill-rule="nonzero"/></g><path fill="#000000" d="M 83.59375 171.996094 C 86.09375 171.996094 88.234375 172.457031 90.007812 173.371094 C 91.78125 174.28125 93.121094 175.558594 94.019531 177.207031 C 94.925781 178.859375 95.382812 180.777344 95.382812 182.957031 C 95.382812 185.132812 94.925781 187.042969 94.019531 188.683594 C 93.121094 190.328125 91.78125 191.605469 90.007812 192.519531 C 88.234375 193.441406 86.09375 193.894531 83.59375 193.894531 L 76.996094 193.894531 L 76.996094 206.910156 L 70.09375 206.910156 L 70.09375 171.996094 Z M 82.683594 188.421875 C 86.515625 188.421875 88.433594 186.601562 88.433594 182.957031 C 88.433594 179.292969 86.515625 177.457031 82.683594 177.457031 L 76.996094 177.457031 L 76.996094 188.421875 Z M 82.683594 188.421875 " fill-opacity="1" fill-rule="nonzero"/><path fill="#000000" d="M 100.570312 206.910156 L 100.570312 180.570312 L 106.996094 180.570312 L 106.996094 184.484375 L 107.496094 184.582031 C 108.125 183.117188 108.960938 182.042969 109.996094 181.359375 C 111.035156 180.667969 112.296875 180.320312 113.769531 180.320312 C 115.269531 180.320312 116.410156 180.582031 117.195312 181.097656 L 116.070312 186.796875 L 115.570312 186.894531 C 115.136719 186.722656 114.71875 186.597656 114.320312 186.519531 C 113.925781 186.441406 113.445312 186.394531 112.871094 186.394531 C 111.019531 186.394531 109.609375 187.046875 108.632812 188.347656 C 107.664062 189.640625 107.183594 191.71875 107.183594 194.582031 L 107.183594 206.910156 Z M 100.570312 206.910156 " fill-opacity="1" fill-rule="nonzero"/><path fill="#000000" d="M 124.515625 177.410156 C 123.320312 177.410156 122.351562 177.046875 121.601562 176.320312 C 120.859375 175.597656 120.492188 174.664062 120.492188 173.519531 C 120.492188 172.390625 120.859375 171.457031 121.601562 170.734375 C 122.351562 170.007812 123.320312 169.644531 124.515625 169.644531 C 125.316406 169.644531 126.023438 169.816406 126.640625 170.160156 C 127.265625 170.492188 127.746094 170.953125 128.089844 171.535156 C 128.429688 172.109375 128.601562 172.769531 128.601562 173.519531 C 128.601562 174.269531 128.429688 174.941406 128.089844 175.535156 C 127.746094 176.117188 127.265625 176.578125 126.640625 176.910156 C 126.023438 177.242188 125.316406 177.410156 124.515625 177.410156 Z M 121.226562 206.910156 L 121.226562 180.570312 L 127.839844 180.570312 L 127.839844 206.910156 Z M 121.226562 206.910156 " fill-opacity="1" fill-rule="nonzero"/><path fill="#000000" d="M 146.976562 207.410156 C 144.425781 207.410156 142.171875 206.878906 140.214844 205.820312 C 138.253906 204.765625 136.726562 203.207031 135.625 201.160156 C 134.527344 199.101562 133.976562 196.628906 133.976562 193.746094 C 133.976562 190.847656 134.527344 188.371094 135.625 186.320312 C 136.726562 184.269531 138.246094 182.71875 140.1875 181.660156 C 142.128906 180.59375 144.351562 180.058594 146.851562 180.058594 C 152.40625 180.058594 155.96875 182.078125 157.527344 186.109375 L 152.988281 189.359375 L 152.488281 189.359375 C 151.945312 188.117188 151.242188 187.191406 150.375 186.582031 C 149.507812 185.976562 148.332031 185.671875 146.851562 185.671875 C 144.941406 185.671875 143.453125 186.332031 142.390625 187.660156 C 141.320312 188.984375 140.789062 191.015625 140.789062 193.746094 C 140.789062 196.457031 141.328125 198.476562 142.414062 199.808594 C 143.496094 201.132812 145.015625 201.796875 146.976562 201.796875 C 148.40625 201.796875 149.621094 201.414062 150.613281 200.644531 C 151.605469 199.871094 152.316406 198.757812 152.75 197.308594 L 153.25 197.257812 L 157.953125 199.832031 C 157.28125 202.066406 156.046875 203.890625 154.238281 205.296875 C 152.429688 206.707031 150.007812 207.410156 146.976562 207.410156 Z M 146.976562 207.410156 " fill-opacity="1" fill-rule="nonzero"/><path fill="#000000" d="M 184.804688 195.234375 L 167.867188 195.234375 C 168.058594 197.527344 168.707031 199.191406 169.816406 200.234375 C 170.933594 201.277344 172.457031 201.796875 174.390625 201.796875 C 175.898438 201.796875 177.125 201.515625 178.066406 200.945312 C 179.007812 200.378906 179.761719 199.527344 180.328125 198.382812 L 180.828125 198.382812 L 185.230469 201.195312 C 184.371094 203.046875 183.070312 204.546875 181.328125 205.695312 C 179.59375 206.839844 177.28125 207.410156 174.390625 207.410156 C 171.667969 207.410156 169.3125 206.894531 167.328125 205.859375 C 165.34375 204.828125 163.816406 203.289062 162.742188 201.246094 C 161.667969 199.195312 161.128906 196.695312 161.128906 193.746094 C 161.128906 190.753906 161.691406 188.234375 162.816406 186.183594 C 163.949219 184.128906 165.480469 182.59375 167.40625 181.582031 C 169.335938 180.566406 171.503906 180.058594 173.90625 180.058594 C 177.628906 180.058594 180.484375 181.046875 182.46875 183.019531 C 184.449219 184.996094 185.441406 187.894531 185.441406 191.722656 C 185.441406 193.105469 185.394531 194.179688 185.304688 194.945312 Z M 179.117188 190.957031 C 179.046875 188.953125 178.582031 187.488281 177.71875 186.570312 C 176.847656 185.65625 175.578125 185.195312 173.90625 185.195312 C 170.5625 185.195312 168.59375 187.117188 168.003906 190.957031 Z M 179.117188 190.957031 " fill-opacity="1" fill-rule="nonzero"/><path fill="#000000" d="M 206.488281 207.410156 C 203.269531 207.410156 200.433594 206.742188 197.976562 205.410156 C 195.527344 204.066406 193.605469 202.054688 192.226562 199.371094 C 190.839844 196.691406 190.152344 193.378906 190.152344 189.445312 C 190.152344 185.515625 190.839844 182.207031 192.226562 179.535156 C 193.605469 176.851562 195.527344 174.84375 197.976562 173.507812 C 200.433594 172.167969 203.269531 171.496094 206.488281 171.496094 C 209.84375 171.496094 212.695312 172.15625 215.039062 173.472656 C 217.386719 174.78125 219.066406 176.78125 220.074219 179.472656 L 215.039062 182.546875 L 214.4375 182.519531 C 213.6875 180.707031 212.667969 179.40625 211.386719 178.621094 C 210.105469 177.832031 208.46875 177.433594 206.488281 177.433594 C 203.589844 177.433594 201.324219 178.394531 199.699219 180.320312 C 198.074219 182.238281 197.261719 185.28125 197.261719 189.445312 C 197.261719 193.605469 198.074219 196.644531 199.699219 198.558594 C 201.324219 200.476562 203.589844 201.433594 206.488281 201.433594 C 211.019531 201.433594 213.792969 199.230469 214.8125 194.820312 L 215.414062 194.820312 L 220.5 197.472656 C 219.550781 200.789062 217.917969 203.277344 215.601562 204.933594 C 213.292969 206.582031 210.253906 207.410156 206.488281 207.410156 Z M 206.488281 207.410156 " fill-opacity="1" fill-rule="nonzero"/><path fill="#000000" d="M 225.445312 206.910156 L 225.445312 180.570312 L 231.871094 180.570312 L 231.871094 184.484375 L 232.371094 184.582031 C 233.003906 183.117188 233.835938 182.042969 234.871094 181.359375 C 235.914062 180.667969 237.171875 180.320312 238.648438 180.320312 C 240.148438 180.320312 241.289062 180.582031 242.070312 181.097656 L 240.945312 186.796875 L 240.445312 186.894531 C 240.011719 186.722656 239.597656 186.597656 239.195312 186.519531 C 238.804688 186.441406 238.320312 186.394531 237.746094 186.394531 C 235.898438 186.394531 234.484375 187.046875 233.507812 188.347656 C 232.539062 189.640625 232.058594 191.71875 232.058594 194.582031 L 232.058594 206.910156 Z M 225.445312 206.910156 " fill-opacity="1" fill-rule="nonzero"/><path fill="#000000" d="M 252.078125 207.410156 C 250.382812 207.410156 248.917969 207.097656 247.679688 206.484375 C 246.433594 205.859375 245.476562 204.945312 244.804688 203.746094 C 244.132812 202.546875 243.804688 201.101562 243.804688 199.410156 C 243.804688 197.851562 244.132812 196.542969 244.804688 195.484375 C 245.476562 194.425781 246.515625 193.558594 247.914062 192.882812 C 249.316406 192.203125 251.148438 191.675781 253.414062 191.308594 C 254.992188 191.058594 256.183594 190.785156 257.003906 190.484375 C 257.828125 190.175781 258.382812 189.832031 258.664062 189.445312 C 258.945312 189.066406 259.089844 188.582031 259.089844 187.996094 C 259.089844 187.15625 258.792969 186.515625 258.203125 186.070312 C 257.617188 185.621094 256.644531 185.394531 255.277344 185.394531 C 253.808594 185.394531 252.414062 185.722656 251.089844 186.371094 C 249.773438 187.019531 248.628906 187.878906 247.652344 188.945312 L 247.179688 188.945312 L 244.402344 184.769531 C 245.742188 183.289062 247.378906 182.132812 249.304688 181.308594 C 251.226562 180.476562 253.328125 180.058594 255.601562 180.058594 C 259.09375 180.058594 261.617188 180.800781 263.179688 182.285156 C 264.734375 183.769531 265.515625 185.871094 265.515625 188.597656 L 265.515625 200.035156 C 265.515625 201.207031 266.03125 201.796875 267.066406 201.796875 C 267.464844 201.796875 267.855469 201.726562 268.242188 201.582031 L 268.578125 201.683594 L 269.054688 206.285156 C 268.683594 206.527344 268.171875 206.722656 267.515625 206.871094 C 266.867188 207.019531 266.152344 207.097656 265.378906 207.097656 C 263.804688 207.097656 262.570312 206.796875 261.691406 206.195312 C 260.804688 205.589844 260.171875 204.640625 259.789062 203.347656 L 259.289062 203.296875 C 257.996094 206.039062 255.59375 207.410156 252.078125 207.410156 Z M 254.179688 202.472656 C 255.703125 202.472656 256.921875 201.957031 257.839844 200.933594 C 258.757812 199.902344 259.214844 198.46875 259.214844 196.632812 L 259.214844 193.957031 L 258.765625 193.871094 C 258.367188 194.191406 257.839844 194.457031 257.191406 194.671875 C 256.546875 194.890625 255.621094 195.097656 254.414062 195.296875 C 252.980469 195.539062 251.945312 195.953125 251.316406 196.535156 C 250.691406 197.117188 250.378906 197.941406 250.378906 199.007812 C 250.378906 200.132812 250.710938 200.992188 251.378906 201.582031 C 252.042969 202.175781 252.976562 202.472656 254.179688 202.472656 Z M 254.179688 202.472656 " fill-opacity="1" fill-rule="nonzero"/><path fill="#000000" d="M 273.878906 206.910156 L 273.878906 185.796875 L 270.152344 185.796875 L 270.152344 180.546875 L 273.878906 180.546875 C 273.605469 179.429688 273.464844 178.382812 273.464844 177.410156 C 273.464844 175.742188 273.847656 174.316406 274.617188 173.132812 C 275.382812 171.941406 276.480469 171.039062 277.917969 170.421875 C 279.347656 169.796875 281.054688 169.484375 283.027344 169.484375 C 285.933594 169.484375 288.105469 169.984375 289.542969 170.984375 L 287.992188 175.859375 L 287.492188 175.957031 C 286.496094 175.257812 285.230469 174.910156 283.691406 174.910156 C 282.496094 174.910156 281.605469 175.203125 281.003906 175.785156 C 280.402344 176.359375 280.105469 177.152344 280.105469 178.160156 C 280.105469 178.582031 280.132812 178.976562 280.191406 179.332031 C 280.246094 179.691406 280.347656 180.097656 280.492188 180.546875 L 288.015625 180.546875 L 288.015625 185.796875 L 280.492188 185.796875 L 280.492188 206.910156 Z M 273.878906 206.910156 " fill-opacity="1" fill-rule="nonzero"/><path fill="#000000" d="M 307.144531 200.632812 L 308.867188 205.519531 C 308.148438 206.113281 307.25 206.578125 306.167969 206.910156 C 305.085938 207.238281 303.855469 207.410156 302.480469 207.410156 C 299.632812 207.410156 297.460938 206.632812 295.980469 205.082031 C 294.507812 203.535156 293.769531 201.277344 293.769531 198.308594 L 293.769531 185.796875 L 289.757812 185.796875 L 289.757812 180.546875 L 293.769531 180.546875 L 293.769531 175.410156 L 300.382812 174.332031 L 300.382812 180.546875 L 307.855469 180.546875 L 307.855469 185.796875 L 300.382812 185.796875 L 300.382812 197.832031 C 300.382812 199.144531 300.648438 200.097656 301.195312 200.695312 C 301.734375 201.289062 302.523438 201.582031 303.554688 201.582031 C 304.738281 201.582031 305.769531 201.269531 306.644531 200.632812 Z M 307.144531 200.632812 " fill-opacity="1" fill-rule="nonzero"/></svg>